<?xml version="1.0" standalone="no"?>
<!DOCTYPE svg PUBLIC "-//W3C//DTD SVG 20010904//EN"
 "http://www.w3.org/TR/2001/REC-SVG-20010904/DTD/svg10.dtd">
<svg version="1.0" xmlns="http://www.w3.org/2000/svg"
 width="499.000000pt" height="347.000000pt" viewBox="0 0 499.000000 347.000000"
 preserveAspectRatio="xMidYMid meet">

<g transform="translate(0.000000,347.000000) scale(0.100000,-0.100000)"
fill="#000000" stroke="none">
<path d="M1220 3403 c-25 -2 -142 -13 -260 -25 -144 -14 -325 -23 -549 -27
-254 -5 -335 -9 -339 -18 -2 -7 3 -13 12 -13 51 0 118 -25 156 -58 54 -46 85
-115 108 -240 16 -89 17 -199 17 -1302 0 -1116 -1 -1212 -18 -1300 -21 -111
-51 -182 -95 -227 -33 -33 -107 -63 -154 -63 -17 0 -28 -5 -28 -14 0 -11 59
-15 342 -19 218 -3 392 -11 478 -21 348 -41 564 -47 756 -21 441 59 724 287
826 666 32 121 32 349 0 462 -55 193 -170 348 -333 449 -158 99 -333 148 -530
148 -168 0 -244 -21 -544 -154 -105 -47 -182 -50 -214 -10 -29 37 -27 92 3
133 57 77 143 119 490 238 395 135 550 208 701 328 116 93 184 190 225 320 26
83 31 230 11 315 -73 307 -379 465 -890 458 -69 -1 -146 -3 -171 -5z m175 -44
c339 -42 554 -193 610 -430 29 -123 14 -247 -43 -353 -36 -69 -179 -211 -277
-275 -44 -29 -204 -115 -355 -191 -151 -76 -310 -162 -353 -191 -159 -104
-223 -254 -142 -335 20 -20 34 -24 83 -24 65 0 127 19 322 100 157 65 253 90
345 90 103 0 169 -15 255 -57 294 -144 456 -601 354 -997 -56 -217 -206 -397
-418 -501 -183 -91 -338 -120 -591 -112 -193 6 -308 24 -445 70 l-95 32 -3
1543 -2 1543 32 13 c46 19 259 65 348 75 111 12 273 12 375 0z"/>
<path d="M3765 3395 c-304 -48 -555 -182 -776 -413 -393 -410 -552 -1039 -424
-1677 102 -505 397 -920 800 -1122 96 -49 181 -80 305 -111 100 -26 116 -27
355 -27 311 1 497 26 780 106 l115 32 0 219 c0 181 -2 218 -14 218 -8 0 -24
-21 -37 -47 -53 -109 -164 -233 -295 -326 -162 -116 -446 -190 -664 -172 -395
33 -739 321 -935 786 -267 632 -206 1493 142 2018 139 209 347 376 555 446
109 37 119 39 276 43 316 9 542 -62 679 -213 67 -74 106 -155 128 -264 33
-162 8 -273 -89 -400 -58 -76 -124 -135 -331 -299 -270 -214 -382 -338 -446
-492 -19 -46 -23 -74 -23 -165 -1 -94 3 -117 22 -160 25 -54 82 -119 122 -139
30 -16 104 -28 113 -20 4 4 -9 24 -28 46 -64 75 -71 201 -18 300 37 70 186
218 353 353 378 305 523 526 524 800 1 372 -302 632 -796 685 -127 13 -293 11
-393 -5z"/>
</g>
</svg>
