<?xml version="1.0" standalone="no"?>
<!DOCTYPE svg PUBLIC "-//W3C//DTD SVG 20010904//EN"
 "http://www.w3.org/TR/2001/REC-SVG-20010904/DTD/svg10.dtd">
<svg version="1.0" xmlns="http://www.w3.org/2000/svg"
 width="178.000000pt" height="140.000000pt" viewBox="0 0 178.000000 140.000000"
 preserveAspectRatio="xMidYMid meet">

<g transform="translate(0.000000,140.000000) scale(0.100000,-0.100000)"
fill="#000000" stroke="none">
<path d="M490 1241 c8 -6 31 -11 50 -11 19 0 55 -10 80 -21 81 -37 120 -88
120 -159 0 -95 -52 -150 -228 -240 -75 -38 -132 -74 -151 -96 -32 -36 -40 -68
-19 -80 7 -4 8 -3 4 5 -5 7 -5 23 -2 36 8 30 52 54 189 102 226 78 297 144
297 275 0 85 -56 152 -149 178 -55 15 -210 24 -191 11z"/>
<path d="M1245 1239 c-234 -48 -395 -273 -395 -552 l0 -99 -35 31 c-48 41 -85
59 -136 66 -37 5 -40 4 -19 -5 91 -40 141 -123 148 -246 4 -72 1 -89 -20 -136
-48 -105 -134 -159 -282 -178 -67 -8 -64 -9 39 -6 202 7 310 78 349 232 l11
45 43 -65 c127 -193 336 -257 622 -188 l75 17 3 75 3 74 -29 -40 c-72 -99
-149 -138 -277 -139 -75 0 -98 4 -138 23 -104 52 -185 158 -234 307 -23 71
-26 96 -27 220 0 117 3 153 23 222 41 144 126 259 231 311 48 23 67 27 145 26
69 0 101 -5 135 -21 81 -37 120 -92 122 -171 2 -62 -20 -100 -88 -159 -173
-147 -214 -198 -214 -268 0 -58 32 -105 71 -105 6 0 6 8 -1 19 -5 11 -10 36
-10 57 0 34 7 44 77 108 197 183 226 223 226 322 0 132 -112 217 -298 229 -38
2 -92 -1 -120 -6z"/>
<path d="M225 1230 c-98 -3 -132 -8 -113 -13 15 -5 34 -20 43 -34 28 -43 37
-207 33 -588 -5 -403 -8 -423 -70 -450 -31 -14 -28 -14 68 -15 56 0 130 -2
165 -5 l64 -5 -62 14 c-35 8 -68 18 -73 21 -7 5 -9 169 -6 523 3 284 5 520 6
524 0 7 80 25 140 31 48 5 -18 4 -195 -3z"/>
<path d="M500 676 c-88 -32 -117 -45 -104 -45 6 -1 38 10 72 24 34 14 86 29
115 34 43 7 46 9 17 10 -19 0 -64 -10 -100 -23z"/>
</g>
</svg>
